HIERARCHY
ROOT Pelvis
{
	OFFSET 0.000000 0.000000 0.000000
	CHANNELS 6 Xposition Yposition Zposition Xrotation Yrotation Zrotation
	JOINT LeftUpLeg_virtual
	{
		OFFSET 0.000000 0.000000 0.000000
		CHANNELS 3 Xrotation Yrotation Zrotation
		JOINT LeftUpLeg
		{
			OFFSET 18.735201 -5.666702 -4.541200
			CHANNELS 3 Xrotation Yrotation Zrotation
			JOINT LeftLeg
			{
				OFFSET -0.021200 -31.938179 0.493100
				CHANNELS 3 Xrotation Yrotation Zrotation
				JOINT LeftFoot
				{
					OFFSET 0.021200 -31.938179 -4.336299
					CHANNELS 3 Xrotation Yrotation Zrotation
					JOINT LeftToeBase
					{
						OFFSET 0.943001 -26.722000 15.023500
						CHANNELS 3 Xrotation Yrotation Zrotation
						End Site
						{
							OFFSET 0 0 0
						}
					}
				}
			}
		}
	}
	JOINT RightUpLeg_virtual
	{
		OFFSET 0.000000 0.000000 0.000000
		CHANNELS 3 Xrotation Yrotation Zrotation
		JOINT RightUpLeg
		{
			OFFSET -18.735201 -5.666702 -4.541200
			CHANNELS 3 Xrotation Yrotation Zrotation
			JOINT RightLeg
			{
				OFFSET 0.018946 -31.938133 0.493100
				CHANNELS 3 Xrotation Yrotation Zrotation
				JOINT RightFoot
				{
					OFFSET -0.018946 -31.938126 -4.336299
					CHANNELS 3 Xrotation Yrotation Zrotation
					JOINT RightToeBase
					{
						OFFSET -0.943001 -26.722004 15.023500
						CHANNELS 3 Xrotation Yrotation Zrotation
						End Site
						{
							OFFSET 0 0 0
						}
					}
				}
			}
		}
	}
	JOINT Hips_virtual
	{
		OFFSET 0.000000 0.000000 0.000000
		CHANNELS 3 Xrotation Yrotation Zrotation
		JOINT Hips
		{
			OFFSET -0.000000 -0.000000 -0.000000
			CHANNELS 3 Xrotation Yrotation Zrotation
			JOINT Spine
			{
				OFFSET 0.000000 10.199997 -0.299500
				CHANNELS 3 Xrotation Yrotation Zrotation
				JOINT Spine1
				{
					OFFSET 0.000000 11.900002 -1.516600
					CHANNELS 3 Xrotation Yrotation Zrotation
					JOINT Spine2
					{
						OFFSET 0.000000 13.600006 -2.842500
						CHANNELS 3 Xrotation Yrotation Zrotation
						JOINT Neck_virtual
						{
							OFFSET 0.000000 0.000000 0.000000
							CHANNELS 3 Xrotation Yrotation Zrotation
							JOINT Neck
							{
								OFFSET 0.000000 9.624100 -2.890100
								CHANNELS 3 Xrotation Yrotation Zrotation
								JOINT Head
								{
									OFFSET 0.000000 14.068802 -1.351900
									CHANNELS 3 Xrotation Yrotation Zrotation
									End Site
									{
										OFFSET 0 0 0
									}
								}
							}
						}
						JOINT LeftShoulder_virtual
						{
							OFFSET 0.000000 0.000000 0.000000
							CHANNELS 3 Xrotation Yrotation Zrotation
							JOINT LeftShoulder
							{
								OFFSET 15.263000 10.923401 -0.547700
								CHANNELS 3 Xrotation Yrotation Zrotation
								JOINT LeftArm
								{
									OFFSET 25.438599 -2.830597 -13.032500
									CHANNELS 3 Xrotation Yrotation Zrotation
									JOINT LeftForeArm
									{
										OFFSET 29.960503 0.000000 0.000000
										CHANNELS 3 Xrotation Yrotation Zrotation
										JOINT LeftHand
										{
											OFFSET 27.849251 0.000000 0.000000
											CHANNELS 3 Xrotation Yrotation Zrotation
											End Site
											{
												OFFSET 0 0 0
											}
										}
									}
								}
							}
						}
						JOINT RightShoulder_virtual
						{
							OFFSET 0.000000 0.000000 0.000000
							CHANNELS 3 Xrotation Yrotation Zrotation
							JOINT RightShoulder
							{
								OFFSET -15.263000 10.923401 -0.547700
								CHANNELS 3 Xrotation Yrotation Zrotation
								JOINT RightArm
								{
									OFFSET -25.438599 -2.830597 -13.032500
									CHANNELS 3 Xrotation Yrotation Zrotation
									JOINT RightForeArm
									{
										OFFSET -29.960503 0.000000 0.000000
										CHANNELS 3 Xrotation Yrotation Zrotation
										JOINT RightHand
										{
											OFFSET -27.849251 0.000000 0.000000
											CHANNELS 3 Xrotation Yrotation Zrotation
											End Site
											{
												OFFSET 0 0 0
											}
										}
									}
								}
							}
						}
					}
				}
			}
		}
	}
}
MOTION
Frames: 11
Frame Time: 0.03333333
16.748066 78.936974 67.119812 0.000000 0.000000 0.000000 159.285954 51.879050 -170.832484 -66.596776 -17.583630 11.661950 43.752426 -30.621049 8.543369 7.446103 -2.403935 -15.107333 0.000000 0.000000 0.000000 161.259933 50.133380 -174.819880 -30.529791 -26.254807 -27.492889 58.115074 -8.047222 4.598606 -10.476294 -4.741263 20.154742 0.000000 0.000000 0.000000 161.449935 50.826836 -173.853914 -0.254241 -2.515928 0.109652 13.971139 5.418040 -3.792530 10.484226 11.200221 -11.366430 0.000000 0.000000 0.000000 0.655889 10.847528 -10.804933 2.696332 2.090093 2.439923 0.000000 0.000000 0.000000 3.028114 10.591791 -10.211799 -0.221719 10.937514 -9.900777 13.184360 26.621458 -66.770126 -54.670600 -33.685182 -34.029006 0.000000 0.000000 0.000000 1.965260 11.277779 -11.440535 2.176082 19.219176 -3.051563 -54.792362 12.857205 70.008333 28.776157 14.961586 -0.259111 0.000000 0.000000 0.000000 
16.382900 79.709534 67.718857 0.000000 0.000000 0.000000 159.267744 55.279255 -169.726977 -63.436413 -16.784297 14.112013 46.144799 -29.503340 8.465756 1.076041 -1.933316 -15.093764 0.000000 0.000000 0.000000 160.573103 54.176828 -173.240467 -32.407858 -22.798364 -26.955794 55.209765 -7.560632 2.709494 -7.849255 -5.487336 19.499137 0.000000 0.000000 0.000000 161.414760 55.205711 -173.460468 -0.160349 -2.326407 0.256328 13.133180 5.210271 -3.960497 10.241984 11.322829 -11.651728 0.000000 0.000000 0.000000 -0.448854 11.141395 -10.738009 2.585561 1.891075 2.150100 0.000000 0.000000 0.000000 2.934259 10.600308 -10.279786 -0.021343 8.392469 -13.883734 5.942277 23.397503 -56.787180 -48.102809 -33.889496 -31.246251 0.000000 0.000000 0.000000 1.328513 11.572646 -11.172122 2.316126 19.555486 -2.551212 -49.445529 10.729959 66.322926 28.440556 23.854494 -0.136191 0.000000 0.000000 0.000000 
15.840266 80.090561 67.606392 0.000000 0.000000 0.000000 160.562120 56.652038 -169.927088 -61.366565 -15.366969 16.800807 49.819878 -27.686696 7.339463 -3.806689 -2.637580 -16.825760 0.000000 0.000000 0.000000 160.552530 55.691703 -172.121723 -32.605981 -19.788074 -25.604410 50.809104 -6.747260 1.275240 -12.121577 -6.738860 19.563328 0.000000 0.000000 0.000000 162.149538 57.883750 -173.828260 0.036247 -2.153698 0.808889 12.434732 4.702383 -4.524378 9.828773 11.233639 -12.001605 0.000000 0.000000 0.000000 -1.425591 11.194512 -10.836441 2.451022 1.669126 1.926271 0.000000 0.000000 0.000000 2.549958 10.355690 -10.549898 -0.036854 5.055064 -16.501872 -0.588439 18.948751 -45.911886 -40.661523 -35.054143 -28.517307 0.000000 0.000000 0.000000 0.768537 11.657667 -10.895865 2.383074 18.661643 -2.589967 -45.029470 7.971461 62.280465 28.211990 37.103046 -0.220885 0.000000 0.000000 0.000000 
15.106982 80.048920 66.865662 0.000000 0.000000 0.000000 162.737535 56.799296 -171.416411 -60.463184 -13.455559 19.125771 53.375166 -24.974129 5.570430 -6.091902 -3.099489 -18.149629 0.000000 0.000000 0.000000 161.499659 55.687205 -172.386489 -31.794766 -17.707916 -23.980600 45.918546 -5.348887 0.603309 -17.826777 -7.066007 21.101094 0.000000 0.000000 0.000000 163.292119 59.323055 -174.723219 0.865322 -1.942538 1.044666 12.080639 3.783680 -5.092639 9.312942 10.657559 -12.238961 0.000000 0.000000 0.000000 -2.201412 10.796476 -10.915618 2.339599 1.468060 1.746431 0.000000 0.000000 0.000000 1.920962 9.659182 -10.895005 -0.164266 1.393851 -17.377818 -5.574282 14.308140 -36.002395 -32.459320 -36.626237 -25.369764 0.000000 0.000000 0.000000 0.295869 11.262208 -10.631452 2.367621 16.628849 -3.395218 -42.134122 5.120883 58.684391 28.036028 52.808721 -0.395309 0.000000 0.000000 0.000000 
14.220622 79.864761 65.010941 0.000000 0.000000 0.000000 164.306771 57.202947 -173.192793 -59.468347 -12.770392 19.761993 56.536174 -21.605425 4.582939 -7.613273 -2.255320 -16.912875 0.000000 0.000000 0.000000 162.016527 55.958131 -172.792147 -30.094452 -16.276756 -22.293326 40.811142 -3.793653 0.334792 -19.939721 -5.944775 23.116242 0.000000 0.000000 0.000000 163.850719 60.102072 -175.375284 1.153429 -2.013352 1.193300 12.142015 2.534349 -5.401534 8.781184 9.505422 -12.218125 0.000000 0.000000 0.000000 -2.816780 9.800691 -10.821503 2.255273 1.310026 1.561255 0.000000 0.000000 0.000000 1.138962 8.472415 -11.117768 -0.159286 -2.099118 -16.679803 -9.715744 10.133443 -28.038700 -23.706441 -38.010013 -21.472590 0.000000 0.000000 0.000000 -0.257311 10.217236 -10.270473 2.282546 13.861441 -4.655521 -39.850380 2.516533 55.461539 27.687592 68.958293 -0.571218 0.000000 0.000000 0.000000 
13.404028 79.780571 62.071686 0.000000 0.000000 0.000000 163.740070 59.740454 -173.334806 -57.586766 -13.651508 18.281053 58.892097 -17.657193 4.789371 -9.902496 -0.399183 -13.236283 0.000000 0.000000 0.000000 161.224880 58.279525 -172.479530 -28.055670 -14.713597 -20.359967 36.729878 -2.599131 -0.229103 -18.803313 -3.915858 23.438580 0.000000 0.000000 0.000000 162.998503 61.999444 -174.799636 1.360038 -1.790408 1.202520 12.403895 1.092068 -5.324166 8.137387 7.904487 -11.812333 0.000000 0.000000 0.000000 -3.307737 8.312597 -10.440448 2.205616 1.236816 1.349952 0.000000 0.000000 0.000000 0.247818 6.856526 -11.071090 0.054620 -5.198541 -14.886711 -13.984185 5.777746 -22.656079 -14.786412 -38.277524 -16.782185 0.000000 0.000000 0.000000 -0.889591 8.645241 -9.748389 2.023134 11.007897 -5.772364 -36.858487 -0.222057 51.956122 24.393691 83.542175 2.185149 0.000000 0.000000 0.000000 
12.744004 80.181961 58.537453 0.000000 0.000000 0.000000 160.932753 64.455095 -171.383940 -55.122646 -14.708394 15.859851 61.003042 -13.560824 5.306575 -13.839162 1.214015 -9.138787 0.000000 0.000000 0.000000 158.760808 63.208169 -170.642782 -25.904445 -12.961115 -18.438354 33.997335 -2.677706 -1.271265 -17.018644 -2.363035 21.189876 0.000000 0.000000 0.000000 159.797726 65.642325 -171.826823 1.907120 -1.480589 0.783412 12.753037 -0.328971 -4.950203 7.542713 6.011797 -11.046276 0.000000 0.000000 0.000000 -3.692229 6.525911 -9.764444 2.208943 1.208019 1.105478 0.000000 0.000000 0.000000 -0.754279 5.042933 -10.712792 0.466969 -7.549492 -12.539252 -18.771831 0.558607 -20.115561 -6.706223 -37.369382 -12.044219 0.000000 0.000000 0.000000 -1.599244 6.762374 -9.063682 1.611296 8.689697 -6.298568 -32.676219 -3.385207 47.989288 -140.783654 84.754465 166.749452 0.000000 0.000000 0.000000 
12.267451 80.951935 54.467361 0.000000 0.000000 0.000000 154.163325 70.493966 -165.187223 -53.029008 -14.623913 13.877828 63.452034 -9.598694 5.039689 -18.954320 1.623622 -6.459989 0.000000 0.000000 0.000000 152.180440 69.945385 -164.418486 -24.131357 -12.270166 -17.184618 31.630176 -4.405946 -2.323455 -16.749015 -1.925121 17.174622 0.000000 0.000000 0.000000 152.852189 70.559795 -164.828434 2.109883 -1.318204 0.257450 12.902876 -1.519002 -4.535512 6.970790 4.184393 -10.059217 0.000000 0.000000 0.000000 -4.026628 4.730770 -8.947295 2.210736 1.208584 0.868259 0.000000 0.000000 0.000000 -1.804959 3.320980 -10.080722 1.014298 -8.929899 -10.059996 -24.001285 -5.252587 -20.306817 -0.113500 -36.326467 -7.861375 0.000000 0.000000 0.000000 -2.273605 4.906352 -8.267574 1.132693 7.164903 -6.194742 -27.860902 -7.025243 44.160482 -143.150738 76.895868 168.320627 0.000000 0.000000 0.000000 
12.129838 81.978493 49.970360 0.000000 0.000000 0.000000 139.557608 76.623972 -150.659479 -51.770228 -11.938699 13.430186 65.646369 -5.714278 3.323766 -22.559020 1.291179 -5.542199 0.000000 0.000000 0.000000 136.842594 76.578674 -148.961535 -22.876221 -12.791648 -16.664615 29.492750 -6.886756 -2.896688 -16.857674 -1.827935 13.855399 0.000000 0.000000 0.000000 138.584866 75.926527 -149.978947 2.698406 -1.116845 -0.182839 12.729074 -2.384745 -4.274596 6.442533 2.698747 -9.031098 0.000000 0.000000 0.000000 -4.307582 3.227143 -8.125528 2.199853 1.205966 0.699518 0.000000 0.000000 0.000000 -2.768259 1.952360 -9.288571 1.543260 -9.177533 -7.726333 -29.209652 -10.473906 -22.673448 4.697453 -36.165886 -4.431682 0.000000 0.000000 0.000000 -2.753215 3.400248 -7.493034 0.690815 6.415511 -5.927593 -23.626396 -10.391991 41.304128 -140.936118 72.803082 165.091328 0.000000 0.000000 0.000000 
12.130843 83.198036 45.481102 0.000000 0.000000 0.000000 109.894233 80.766324 -120.528414 -50.224830 -6.695816 14.159011 66.448493 -1.781079 0.685158 -24.345147 1.129114 -5.384567 0.000000 0.000000 0.000000 105.751395 80.516305 -117.023448 -21.894725 -14.121782 -16.823760 27.462169 -9.350508 -2.975306 -14.480611 -1.134829 12.919295 0.000000 0.000000 0.000000 110.434515 79.858462 -120.802031 2.668430 -1.724398 -0.338996 12.310685 -2.899409 -4.242728 6.036753 1.650463 -8.086336 0.000000 0.000000 0.000000 -4.548985 2.143795 -7.383611 2.165564 1.162209 0.650002 0.000000 0.000000 0.000000 -3.628593 1.070567 -8.458539 1.934524 -8.509282 -5.796928 -33.652499 -13.807027 -26.116415 7.971672 -38.124494 -1.617181 0.000000 0.000000 0.000000 -3.104343 2.344507 -6.812038 0.360649 6.090814 -5.694558 -21.133160 -12.338049 40.084546 -137.265000 71.786463 160.002673 0.000000 0.000000 0.000000 
12.303380 84.387543 41.306583 0.000000 0.000000 0.000000 64.838795 80.481758 -74.210709 -46.645698 -0.746102 14.337552 64.385420 2.436714 -1.433869 -26.431176 1.357789 -5.333922 0.000000 0.000000 0.000000 65.008982 80.125017 -74.865273 -20.713254 -15.180251 -17.424270 25.082972 -11.318536 -3.124783 -9.067124 0.304973 13.246793 0.000000 0.000000 0.000000 68.339540 80.058409 -77.368176 2.243077 -2.094300 -0.080441 11.720742 -3.138873 -4.381884 5.675185 1.099098 -7.231559 0.000000 0.000000 0.000000 -4.701742 1.530165 -6.714344 2.098990 1.078240 0.750585 0.000000 0.000000 0.000000 -4.281276 0.675237 -7.648345 2.150758 -7.379894 -4.469726 -36.525738 -14.775683 -29.841257 10.182507 -42.265836 0.823220 0.000000 0.000000 0.000000 -3.366034 1.764562 -6.210972 0.195904 5.875178 -5.563759 -20.455669 -12.344185 40.353786 -132.170840 73.008971 153.060933 0.000000 0.000000 0.000000 
